<?xml version="1.0" encoding="UTF-8" standalone="no"?>
<!DOCTYPE svg PUBLIC "-//W3C//DTD SVG 1.1//EN"
 "http://www.w3.org/Graphics/SVG/1.1/DTD/svg11.dtd">
<!-- Generated by graphviz version 2.46.0 (20210119.1425)
 -->
<!-- Title: dependencies Pages: 1 -->
<svg width="2799pt" height="284pt"
 viewBox="0.00 0.00 2799.00 284.00" xmlns="http://www.w3.org/2000/svg" xmlns:xlink="http://www.w3.org/1999/xlink">
<g id="graph0" class="graph" transform="scale(1 1) rotate(0) translate(4 280)">
<title>dependencies</title>
<polygon fill="white" stroke="transparent" points="-4,4 -4,-280 2795,-280 2795,4 -4,4"/>
<text text-anchor="start" x="1374.51" y="-42.4" font-family="sans-serif" font-weight="bold" font-size="14.00">Legend</text>
<polygon fill="#ffffb3" stroke="transparent" points="1161.5,-10 1161.5,-30 1181.5,-30 1181.5,-10 1161.5,-10"/>
<text text-anchor="start" x="1185.13" y="-15.4" font-family="sans-serif" font-size="14.00"> &#160;Declarations</text>
<polygon fill="#8dd3c7" stroke="transparent" points="1274.5,-10 1274.5,-30 1294.5,-30 1294.5,-10 1274.5,-10"/>
<text text-anchor="start" x="1298.23" y="-15.4" font-family="sans-serif" font-size="14.00"> &#160;Module</text>
<polygon fill="#80b1d3" stroke="transparent" points="1360.5,-10 1360.5,-30 1380.5,-30 1380.5,-10 1360.5,-10"/>
<text text-anchor="start" x="1384.28" y="-15.4" font-family="sans-serif" font-size="14.00"> &#160;Bootstrap</text>
<polygon fill="#fdb462" stroke="transparent" points="1457.5,-10 1457.5,-30 1477.5,-30 1477.5,-10 1457.5,-10"/>
<text text-anchor="start" x="1481.17" y="-15.4" font-family="sans-serif" font-size="14.00"> &#160;Providers</text>
<polygon fill="#fb8072" stroke="transparent" points="1553.5,-10 1553.5,-30 1573.5,-30 1573.5,-10 1553.5,-10"/>
<text text-anchor="start" x="1577.23" y="-15.4" font-family="sans-serif" font-size="14.00"> &#160;Exports</text>
<g id="clust1" class="cluster">
<title>cluster_AppModule</title>
<polygon fill="none" stroke="black" stroke-dasharray="1,5" points="8,-70 8,-268 2783,-268 2783,-70 8,-70"/>
</g>
<g id="clust20" class="cluster">
<title>cluster_AppModule_imports</title>
<polygon fill="none" stroke="black" points="2631,-78 2631,-130 2775,-130 2775,-78 2631,-78"/>
</g>
<g id="clust22" class="cluster">
<title>cluster_AppModule_bootstrap</title>
<polygon fill="none" stroke="black" points="1287,-208 1287,-260 1411,-260 1411,-208 1287,-208"/>
</g>
<g id="clust2" class="cluster">
<title>cluster_AppModule_declarations</title>
<polygon fill="none" stroke="black" points="16,-78 16,-130 2623,-130 2623,-78 16,-78"/>
</g>
<!-- AlertasComponent -->
<g id="node1" class="node">
<title>AlertasComponent</title>
<polygon fill="#ffffb3" stroke="black" points="2614.75,-122 2493.25,-122 2493.25,-86 2614.75,-86 2614.75,-122"/>
<text text-anchor="middle" x="2554" y="-99.8" font-family="Times,serif" font-size="14.00">AlertasComponent</text>
</g>
<!-- AppModule -->
<g id="node18" class="node">
<title>AppModule</title>
<polygon fill="#8dd3c7" stroke="black" points="1390.66,-187 1387.66,-191 1366.66,-191 1363.66,-187 1307.34,-187 1307.34,-151 1390.66,-151 1390.66,-187"/>
<text text-anchor="middle" x="1349" y="-164.8" font-family="Times,serif" font-size="14.00">AppModule</text>
</g>
<!-- AlertasComponent&#45;&gt;AppModule -->
<g id="edge1" class="edge">
<title>AlertasComponent&#45;&gt;AppModule</title>
<path fill="none" stroke="black" d="M2554,-122.16C2554,-144.35 2554,-179 2554,-179 2554,-179 1400.83,-179 1400.83,-179"/>
<polygon fill="black" stroke="black" points="1400.83,-175.5 1390.83,-179 1400.83,-182.5 1400.83,-175.5"/>
</g>
<!-- AppComponent -->
<g id="node2" class="node">
<title>AppComponent</title>
<polygon fill="#ffffb3" stroke="black" points="2474.94,-122 2369.06,-122 2369.06,-86 2474.94,-86 2474.94,-122"/>
<text text-anchor="middle" x="2422" y="-99.8" font-family="Times,serif" font-size="14.00">AppComponent</text>
</g>
<!-- AppComponent&#45;&gt;AppModule -->
<g id="edge2" class="edge">
<title>AppComponent&#45;&gt;AppModule</title>
<path fill="none" stroke="black" d="M2422,-122.28C2422,-143.32 2422,-175 2422,-175 2422,-175 1400.73,-175 1400.73,-175"/>
<polygon fill="black" stroke="black" points="1400.73,-171.5 1390.73,-175 1400.73,-178.5 1400.73,-171.5"/>
</g>
<!-- CadastrarComponent -->
<g id="node3" class="node">
<title>CadastrarComponent</title>
<polygon fill="#ffffb3" stroke="black" points="2351.47,-122 2216.53,-122 2216.53,-86 2351.47,-86 2351.47,-122"/>
<text text-anchor="middle" x="2284" y="-99.8" font-family="Times,serif" font-size="14.00">CadastrarComponent</text>
</g>
<!-- CadastrarComponent&#45;&gt;AppModule -->
<g id="edge3" class="edge">
<title>CadastrarComponent&#45;&gt;AppModule</title>
<path fill="none" stroke="black" d="M2284,-122.31C2284,-142.15 2284,-171 2284,-171 2284,-171 1400.69,-171 1400.69,-171"/>
<polygon fill="black" stroke="black" points="1400.69,-167.5 1390.69,-171 1400.69,-174.5 1400.69,-167.5"/>
</g>
<!-- CadastroProdutoComponent -->
<g id="node4" class="node">
<title>CadastroProdutoComponent</title>
<polygon fill="#ffffb3" stroke="black" points="2198.93,-122 2023.07,-122 2023.07,-86 2198.93,-86 2198.93,-122"/>
<text text-anchor="middle" x="2111" y="-99.8" font-family="Times,serif" font-size="14.00">CadastroProdutoComponent</text>
</g>
<!-- CadastroProdutoComponent&#45;&gt;AppModule -->
<g id="edge4" class="edge">
<title>CadastroProdutoComponent&#45;&gt;AppModule</title>
<path fill="none" stroke="black" d="M2111,-122.22C2111,-140.83 2111,-167 2111,-167 2111,-167 1400.78,-167 1400.78,-167"/>
<polygon fill="black" stroke="black" points="1400.78,-163.5 1390.78,-167 1400.78,-170.5 1400.78,-163.5"/>
</g>
<!-- CategoriaComponent -->
<g id="node5" class="node">
<title>CategoriaComponent</title>
<polygon fill="#ffffb3" stroke="black" points="2004.75,-122 1869.25,-122 1869.25,-86 2004.75,-86 2004.75,-122"/>
<text text-anchor="middle" x="1937" y="-99.8" font-family="Times,serif" font-size="14.00">CategoriaComponent</text>
</g>
<!-- CategoriaComponent&#45;&gt;AppModule -->
<g id="edge5" class="edge">
<title>CategoriaComponent&#45;&gt;AppModule</title>
<path fill="none" stroke="black" d="M1937,-122.02C1937,-139.37 1937,-163 1937,-163 1937,-163 1400.82,-163 1400.82,-163"/>
<polygon fill="black" stroke="black" points="1400.82,-159.5 1390.82,-163 1400.82,-166.5 1400.82,-159.5"/>
</g>
<!-- CategoriaDeleteComponent -->
<g id="node6" class="node">
<title>CategoriaDeleteComponent</title>
<polygon fill="#ffffb3" stroke="black" points="1851.29,-122 1678.71,-122 1678.71,-86 1851.29,-86 1851.29,-122"/>
<text text-anchor="middle" x="1765" y="-99.8" font-family="Times,serif" font-size="14.00">CategoriaDeleteComponent</text>
</g>
<!-- CategoriaDeleteComponent&#45;&gt;AppModule -->
<g id="edge6" class="edge">
<title>CategoriaDeleteComponent&#45;&gt;AppModule</title>
<path fill="none" stroke="black" d="M1765,-122.01C1765,-138.05 1765,-159 1765,-159 1765,-159 1400.79,-159 1400.79,-159"/>
<polygon fill="black" stroke="black" points="1400.79,-155.5 1390.79,-159 1400.79,-162.5 1400.79,-155.5"/>
</g>
<!-- CategoriaEditComponent -->
<g id="node7" class="node">
<title>CategoriaEditComponent</title>
<polygon fill="#ffffb3" stroke="black" points="1660.59,-122 1501.41,-122 1501.41,-86 1660.59,-86 1660.59,-122"/>
<text text-anchor="middle" x="1581" y="-99.8" font-family="Times,serif" font-size="14.00">CategoriaEditComponent</text>
</g>
<!-- CategoriaEditComponent&#45;&gt;AppModule -->
<g id="edge7" class="edge">
<title>CategoriaEditComponent&#45;&gt;AppModule</title>
<path fill="none" stroke="black" d="M1581,-122.12C1581,-136.78 1581,-155 1581,-155 1581,-155 1400.74,-155 1400.74,-155"/>
<polygon fill="black" stroke="black" points="1400.74,-151.5 1390.74,-155 1400.74,-158.5 1400.74,-151.5"/>
</g>
<!-- ContatoComponent -->
<g id="node8" class="node">
<title>ContatoComponent</title>
<polygon fill="#ffffb3" stroke="black" points="1483.67,-122 1358.33,-122 1358.33,-86 1483.67,-86 1483.67,-122"/>
<text text-anchor="middle" x="1421" y="-99.8" font-family="Times,serif" font-size="14.00">ContatoComponent</text>
</g>
<!-- ContatoComponent&#45;&gt;AppModule -->
<g id="edge8" class="edge">
<title>ContatoComponent&#45;&gt;AppModule</title>
<path fill="none" stroke="black" d="M1374.5,-122.11C1374.5,-122.11 1374.5,-140.99 1374.5,-140.99"/>
<polygon fill="black" stroke="black" points="1371,-140.99 1374.5,-150.99 1378,-140.99 1371,-140.99"/>
</g>
<!-- EstoqueComponent -->
<g id="node9" class="node">
<title>EstoqueComponent</title>
<polygon fill="#ffffb3" stroke="black" points="1340.44,-122 1213.56,-122 1213.56,-86 1340.44,-86 1340.44,-122"/>
<text text-anchor="middle" x="1277" y="-99.8" font-family="Times,serif" font-size="14.00">EstoqueComponent</text>
</g>
<!-- EstoqueComponent&#45;&gt;AppModule -->
<g id="edge9" class="edge">
<title>EstoqueComponent&#45;&gt;AppModule</title>
<path fill="none" stroke="black" d="M1323.69,-122.11C1323.69,-122.11 1323.69,-140.99 1323.69,-140.99"/>
<polygon fill="black" stroke="black" points="1320.19,-140.99 1323.69,-150.99 1327.19,-140.99 1320.19,-140.99"/>
</g>
<!-- HomeComponent -->
<g id="node10" class="node">
<title>HomeComponent</title>
<polygon fill="#ffffb3" stroke="black" points="1195.55,-122 1080.45,-122 1080.45,-86 1195.55,-86 1195.55,-122"/>
<text text-anchor="middle" x="1138" y="-99.8" font-family="Times,serif" font-size="14.00">HomeComponent</text>
</g>
<!-- HomeComponent&#45;&gt;AppModule -->
<g id="edge10" class="edge">
<title>HomeComponent&#45;&gt;AppModule</title>
<path fill="none" stroke="black" d="M1138,-122.12C1138,-136.78 1138,-155 1138,-155 1138,-155 1297.31,-155 1297.31,-155"/>
<polygon fill="black" stroke="black" points="1297.31,-158.5 1307.31,-155 1297.31,-151.5 1297.31,-158.5"/>
</g>
<!-- LoginComponent -->
<g id="node11" class="node">
<title>LoginComponent</title>
<polygon fill="#ffffb3" stroke="black" points="1062.28,-122 947.72,-122 947.72,-86 1062.28,-86 1062.28,-122"/>
<text text-anchor="middle" x="1005" y="-99.8" font-family="Times,serif" font-size="14.00">LoginComponent</text>
</g>
<!-- LoginComponent&#45;&gt;AppModule -->
<g id="edge11" class="edge">
<title>LoginComponent&#45;&gt;AppModule</title>
<path fill="none" stroke="black" d="M1005,-122.01C1005,-138.05 1005,-159 1005,-159 1005,-159 1297.16,-159 1297.16,-159"/>
<polygon fill="black" stroke="black" points="1297.16,-162.5 1307.16,-159 1297.16,-155.5 1297.16,-162.5"/>
</g>
<!-- MenuComponent -->
<g id="node12" class="node">
<title>MenuComponent</title>
<polygon fill="#ffffb3" stroke="black" points="929.99,-122 816.01,-122 816.01,-86 929.99,-86 929.99,-122"/>
<text text-anchor="middle" x="873" y="-99.8" font-family="Times,serif" font-size="14.00">MenuComponent</text>
</g>
<!-- MenuComponent&#45;&gt;AppModule -->
<g id="edge12" class="edge">
<title>MenuComponent&#45;&gt;AppModule</title>
<path fill="none" stroke="black" d="M873,-122.02C873,-139.37 873,-163 873,-163 873,-163 1297.18,-163 1297.18,-163"/>
<polygon fill="black" stroke="black" points="1297.18,-166.5 1307.18,-163 1297.18,-159.5 1297.18,-166.5"/>
</g>
<!-- ProdutoDeleteComponent -->
<g id="node13" class="node">
<title>ProdutoDeleteComponent</title>
<polygon fill="#ffffb3" stroke="black" points="798.2,-122 635.8,-122 635.8,-86 798.2,-86 798.2,-122"/>
<text text-anchor="middle" x="717" y="-99.8" font-family="Times,serif" font-size="14.00">ProdutoDeleteComponent</text>
</g>
<!-- ProdutoDeleteComponent&#45;&gt;AppModule -->
<g id="edge13" class="edge">
<title>ProdutoDeleteComponent&#45;&gt;AppModule</title>
<path fill="none" stroke="black" d="M717,-122.22C717,-140.83 717,-167 717,-167 717,-167 1297.04,-167 1297.04,-167"/>
<polygon fill="black" stroke="black" points="1297.04,-170.5 1307.04,-167 1297.04,-163.5 1297.04,-170.5"/>
</g>
<!-- ProdutoEditComponent -->
<g id="node14" class="node">
<title>ProdutoEditComponent</title>
<polygon fill="#ffffb3" stroke="black" points="617.5,-122 468.5,-122 468.5,-86 617.5,-86 617.5,-122"/>
<text text-anchor="middle" x="543" y="-99.8" font-family="Times,serif" font-size="14.00">ProdutoEditComponent</text>
</g>
<!-- ProdutoEditComponent&#45;&gt;AppModule -->
<g id="edge14" class="edge">
<title>ProdutoEditComponent&#45;&gt;AppModule</title>
<path fill="none" stroke="black" d="M543,-122.31C543,-142.15 543,-171 543,-171 543,-171 1297.08,-171 1297.08,-171"/>
<polygon fill="black" stroke="black" points="1297.08,-174.5 1307.08,-171 1297.08,-167.5 1297.08,-174.5"/>
</g>
<!-- RodapeComponent -->
<g id="node15" class="node">
<title>RodapeComponent</title>
<polygon fill="#ffffb3" stroke="black" points="450.1,-122 325.9,-122 325.9,-86 450.1,-86 450.1,-122"/>
<text text-anchor="middle" x="388" y="-99.8" font-family="Times,serif" font-size="14.00">RodapeComponent</text>
</g>
<!-- RodapeComponent&#45;&gt;AppModule -->
<g id="edge15" class="edge">
<title>RodapeComponent&#45;&gt;AppModule</title>
<path fill="none" stroke="black" d="M388,-122.28C388,-143.32 388,-175 388,-175 388,-175 1297.09,-175 1297.09,-175"/>
<polygon fill="black" stroke="black" points="1297.09,-178.5 1307.09,-175 1297.09,-171.5 1297.09,-178.5"/>
</g>
<!-- ServicosComponent -->
<g id="node16" class="node">
<title>ServicosComponent</title>
<polygon fill="#ffffb3" stroke="black" points="307.54,-122 178.46,-122 178.46,-86 307.54,-86 307.54,-122"/>
<text text-anchor="middle" x="243" y="-99.8" font-family="Times,serif" font-size="14.00">ServicosComponent</text>
</g>
<!-- ServicosComponent&#45;&gt;AppModule -->
<g id="edge16" class="edge">
<title>ServicosComponent&#45;&gt;AppModule</title>
<path fill="none" stroke="black" d="M243,-122.16C243,-144.35 243,-179 243,-179 243,-179 1297.33,-179 1297.33,-179"/>
<polygon fill="black" stroke="black" points="1297.33,-182.5 1307.33,-179 1297.33,-175.5 1297.33,-182.5"/>
</g>
<!-- SobreNosComponent -->
<g id="node17" class="node">
<title>SobreNosComponent</title>
<polygon fill="#ffffb3" stroke="black" points="160.04,-122 23.96,-122 23.96,-86 160.04,-86 160.04,-122"/>
<text text-anchor="middle" x="92" y="-99.8" font-family="Times,serif" font-size="14.00">SobreNosComponent</text>
</g>
<!-- SobreNosComponent&#45;&gt;AppModule -->
<g id="edge17" class="edge">
<title>SobreNosComponent&#45;&gt;AppModule</title>
<path fill="none" stroke="black" d="M92,-122.32C92,-145.66 92,-183 92,-183 92,-183 1297.18,-183 1297.18,-183"/>
<polygon fill="black" stroke="black" points="1297.18,-186.5 1307.18,-183 1297.18,-179.5 1297.18,-186.5"/>
</g>
<!-- AppComponent  -->
<g id="node20" class="node">
<title>AppComponent </title>
<polygon fill="#80b1d3" stroke="black" points="1403.44,-252 1294.56,-252 1294.56,-216 1403.44,-216 1403.44,-252"/>
<text text-anchor="middle" x="1349" y="-229.8" font-family="Times,serif" font-size="14.00">AppComponent </text>
</g>
<!-- AppModule&#45;&gt;AppComponent  -->
<g id="edge19" class="edge">
<title>AppModule&#45;&gt;AppComponent </title>
<path fill="none" stroke="black" stroke-dasharray="1,5" d="M1349,-187.11C1349,-187.11 1349,-205.99 1349,-205.99"/>
<polygon fill="black" stroke="black" points="1345.5,-205.99 1349,-215.99 1352.5,-205.99 1345.5,-205.99"/>
</g>
<!-- AppRoutingModule -->
<g id="node19" class="node">
<title>AppRoutingModule</title>
<polygon fill="#8dd3c7" stroke="black" points="2767.27,-122 2764.27,-126 2743.27,-126 2740.27,-122 2638.73,-122 2638.73,-86 2767.27,-86 2767.27,-122"/>
<text text-anchor="middle" x="2703" y="-99.8" font-family="Times,serif" font-size="14.00">AppRoutingModule</text>
</g>
<!-- AppRoutingModule&#45;&gt;AppModule -->
<g id="edge18" class="edge">
<title>AppRoutingModule&#45;&gt;AppModule</title>
<path fill="none" stroke="black" d="M2703,-122.32C2703,-145.66 2703,-183 2703,-183 2703,-183 1401.01,-183 1401.01,-183"/>
<polygon fill="black" stroke="black" points="1401.01,-179.5 1391.01,-183 1401.01,-186.5 1401.01,-179.5"/>
</g>
</g>
</svg>
